<?xml version="1.0" encoding="UTF-8" standalone="no"?>
<!-- Created with Inkscape (http://www.inkscape.org/) -->

<svg
   width="300mm"
   height="300mm"
   viewBox="0 0 300 300"
   version="1.1"
   id="svg5"
   xml:space="preserve"
   inkscape:version="1.2.2 (732a01da63, 2022-12-09)"
   sodipodi:docname="OnnetLogo.svg"
   xmlns:inkscape="http://www.inkscape.org/namespaces/inkscape"
   xmlns:sodipodi="http://sodipodi.sourceforge.net/DTD/sodipodi-0.dtd"
   xmlns:xlink="http://www.w3.org/1999/xlink"
   xmlns="http://www.w3.org/2000/svg"
   xmlns:svg="http://www.w3.org/2000/svg"><sodipodi:namedview
     id="namedview7"
     pagecolor="#505050"
     bordercolor="#eeeeee"
     borderopacity="1"
     inkscape:showpageshadow="0"
     inkscape:pageopacity="0"
     inkscape:pagecheckerboard="0"
     inkscape:deskcolor="#505050"
     inkscape:document-units="mm"
     showgrid="false"
     inkscape:zoom="0.34175347"
     inkscape:cx="582.29108"
     inkscape:cy="615.94107"
     inkscape:window-width="1920"
     inkscape:window-height="991"
     inkscape:window-x="-9"
     inkscape:window-y="-9"
     inkscape:window-maximized="1"
     inkscape:current-layer="layer1" /><defs
     id="defs2"><linearGradient
       inkscape:collect="always"
       id="linearGradient2296"><stop
         style="stop-color:#00ffff;stop-opacity:1"
         offset="0"
         id="stop2292" /><stop
         style="stop-color:#0000ff;stop-opacity:1"
         offset="1"
         id="stop2294" /></linearGradient><linearGradient
       inkscape:collect="always"
       xlink:href="#linearGradient2296"
       id="linearGradient2298"
       x1="-10.064516"
       y1="183.48387"
       x2="564.38708"
       y2="76.645164"
       gradientUnits="userSpaceOnUse" /></defs><g
     inkscape:label="Layer 1"
     inkscape:groupmode="layer"
     id="layer1"><path
       id="rect1457"
       style="opacity:1;fill:url(#linearGradient2298);stroke:none;stroke-width:0.87655;stroke-linecap:round;fill-opacity:1"
       d="m 93.002962,25.73398 a 230.41933,227.72171 0 0 1 141.343708,210.00116 230.41933,227.72171 0 0 1 -1.54803,24.95084 144.39825,75.1597 0 0 0 61.59937,-61.51884 V 25.73398 Z M 5.6019944,25.75691 V 81.293261 A 154.46208,154.46208 0 0 1 158.38962,235.73528 154.46208,154.46208 0 0 1 153.40219,274.26602 144.39825,75.1597 0 0 0 214.05207,266.4757 212.48778,210.0001 0 0 0 216.4159,235.73528 212.48778,210.0001 0 0 0 5.6019944,25.756769 Z m 0,74.47586 v 54.45015 a 81.078746,81.078746 0 0 1 79.4040516,81.05236 81.078746,81.078746 0 0 1 -5.441673,28.98426 144.39825,75.1597 0 0 0 54.327097,9.09073 135.5242,135.5242 0 0 0 5.56016,-38.07499 A 135.5242,135.5242 0 0 0 5.6019944,100.23277 Z m 0,73.18761 v 25.74691 A 144.39825,75.1597 0 0 0 61.828048,258.6108 62.345898,62.345898 0 0 0 66.273142,235.73514 62.345898,62.345898 0 0 0 5.6019944,173.42023 Z" /></g></svg>
